<?xml version="1.0" encoding="UTF-8" standalone="no"?>
<!-- Created with Inkscape (http://www.inkscape.org/) -->

<svg
   xmlns:dc="http://purl.org/dc/elements/1.1/"
   xmlns:cc="http://creativecommons.org/ns#"
   xmlns:rdf="http://www.w3.org/1999/02/22-rdf-syntax-ns#"
   xmlns:svg="http://www.w3.org/2000/svg"
   xmlns="http://www.w3.org/2000/svg"
   xmlns:sodipodi="http://sodipodi.sourceforge.net/DTD/sodipodi-0.dtd"
   xmlns:inkscape="http://www.inkscape.org/namespaces/inkscape"
   width="122.45634mm"
   height="37.83799mm"
   viewBox="0 0 122.45636 37.83799"
   version="1.1"
   id="svg8"
   inkscape:version="0.92.2 (5c3e80d, 2017-08-06)"
   sodipodi:docname="logo.svg">
  <defs
     id="defs2" />
  <sodipodi:namedview
     id="base"
     pagecolor="#ffffff"
     bordercolor="#666666"
     borderopacity="1.0"
     inkscape:pageopacity="0.0"
     inkscape:pageshadow="2"
     inkscape:zoom="1.4"
     inkscape:cx="142.51171"
     inkscape:cy="60.041991"
     inkscape:document-units="mm"
     inkscape:current-layer="layer1"
     showgrid="false"
     inkscape:measure-start="124.286,590"
     inkscape:measure-end="655.714,590"
     inkscape:window-width="1500"
     inkscape:window-height="937"
     inkscape:window-x="-8"
     inkscape:window-y="-8"
     inkscape:window-maximized="1"
     fit-margin-top="1"
     fit-margin-left="1"
     fit-margin-right="1"
     fit-margin-bottom="1" />
  <metadata
     id="metadata5">
    <rdf:RDF>
      <cc:Work
         rdf:about="">
        <dc:format>image/svg+xml</dc:format>
        <dc:type
           rdf:resource="http://purl.org/dc/dcmitype/StillImage" />
        <dc:title></dc:title>
      </cc:Work>
    </rdf:RDF>
  </metadata>
  <g
     inkscape:label="Layer 1"
     inkscape:groupmode="layer"
     id="layer1"
     transform="translate(-32.661804,-104.67373)">
    <path
       style="fill:#ffffff;fill-opacity:1;stroke:#000000;stroke-width:0.5291667;stroke-linecap:butt;stroke-linejoin:miter;stroke-miterlimit:4;stroke-dasharray:none;stroke-opacity:0.98989898"
       d="m 33.962503,133.72379 c -0.404089,4.61266 2.538077,7.42824 8.654312,7.27621 8.862719,-0.2203 13.343436,-6.60733 14.434662,-11.08169 1.263303,-5.17993 -0.763818,-12.0702 -6.402668,-11.51206 -1.31463,0.13012 -2.533474,-0.41375 -2.226341,-1.85934 0.342719,-1.6131 2.541403,-1.75175 3.171281,-0.21953 1.300054,3.16247 9.406412,4.09908 10.016369,-3.44904 0.327932,-4.0581 -2.833906,-6.78277 -8.787945,-6.87834 -6.656325,-0.10685 -13.577467,2.34519 -14.80314,10.58515 -0.985541,6.62559 3.061697,10.46955 5.826204,11.27051 2.096477,0.60741 3.53922,0.48675 3.496281,2.10248 -0.04734,1.78117 -2.56967,2.95551 -3.401786,0.92132 -2.301421,-5.62606 -9.489891,-2.71862 -9.977229,2.84433 z"
       id="path21"
       inkscape:connector-curvature="0"
       sodipodi:nodetypes="sssssssssssss" />
    <path
       style="fill:#ffffff;fill-opacity:1;stroke:#000000;stroke-width:0.5291667;stroke-linecap:butt;stroke-linejoin:round;stroke-miterlimit:4;stroke-dasharray:none;stroke-opacity:0.98989898"
       d="m 66.032438,117.83928 -4.960939,18.19011 c -1.10877,4.06549 1.735712,4.94214 3.874257,4.97061 2.636814,0.0351 5.612623,-1.86495 5.953124,-3.88393 l 4.724703,-18.70982 c 0.830634,-3.28931 1.513882,-2.50212 1.513882,-2.50212 3.582659,-0.64134 5.455606,-3.57859 5.809407,-4.91566 0.814676,-3.07881 -0.818819,-4.95823 -2.504092,-4.96482 l -12.095238,-0.0473 c -3.071051,-0.012 -5.177236,2.59058 -5.575149,4.39785 -0.590602,2.68244 0.169102,5.38087 3.78174,5.54028 0,0 -0.308722,1.14385 -0.521695,1.92475 z"
       id="path831"
       inkscape:connector-curvature="0"
       sodipodi:nodetypes="csscsssssscsc" />
    <path
       style="fill:#ffffff;fill-opacity:1;stroke:#000000;stroke-width:0.5291667;stroke-linecap:butt;stroke-linejoin:round;stroke-miterlimit:4;stroke-dasharray:none;stroke-opacity:0.98989898"
       d="m 90.251258,105.97638 c -2.06034,-0.28749 -5.764609,1.12495 -6.331099,3.40569 l -5.43341,21.87537 c -1.100396,4.43029 1.031789,9.97177 7.9375,9.74256 8.751721,-0.29048 13.362844,-7.03268 15.591471,-15.55394 l 4.016,-15.35529 c 0.47246,-1.80648 -0.54495,-3.87437 -3.59077,-4.06715 -3.245334,-0.20541 -6.125569,1.58783 -6.779223,4.06715 l -4.44694,16.86719 c -0.368255,1.39678 -0.972709,4.32136 -1.975285,4.11909 -0.929534,-0.18753 -0.129223,-3.05133 0.237219,-4.44408 l 4.402075,-16.73119 c 0.471597,-1.79244 -1.531465,-3.63293 -3.627538,-3.9254 z"
       id="path833"
       inkscape:connector-curvature="0"
       sodipodi:nodetypes="sssssssssssss" />
    <g
       id="g871"
       transform="translate(-8.9958336)">
      <path
         sodipodi:nodetypes="ssssssss"
         inkscape:connector-curvature="0"
         id="path835"
         d="m 123.59821,106.04725 c -2.56377,0.03 -5.48232,1.80216 -6.14211,4.27976 l -6.94531,26.08035 c -0.68125,2.55815 1.02019,4.49859 2.92931,4.50626 l 9.73289,0.0391 c 7.45802,0.03 12.0312,-10.40736 13.79613,-18.43601 2.78813,-12.68317 0.12543,-16.62734 -5.29166,-16.56398 z"
         style="fill:#ffffff;fill-opacity:1;stroke:#000000;stroke-width:0.5291667;stroke-linecap:butt;stroke-linejoin:miter;stroke-miterlimit:4;stroke-dasharray:none;stroke-opacity:0.98989898" />
      <path
         sodipodi:nodetypes="sssss"
         inkscape:connector-curvature="0"
         id="path837"
         d="m 125.3936,116.32738 c 0.42317,-1.58416 3.02488,-1.30893 2.92932,0.0945 -0.27271,4.00503 -1.6491,9.15112 -3.40179,13.5599 -0.50664,1.27441 -3.98142,3.01914 -3.2128,0.14174 z"
         style="fill:#ffffff;fill-opacity:1;stroke:#000000;stroke-width:0.5291667;stroke-linecap:butt;stroke-linejoin:miter;stroke-miterlimit:4;stroke-dasharray:none;stroke-opacity:0.98989898" />
    </g>
    <path
       style="fill:#ffffff;fill-opacity:1;stroke:#000000;stroke-width:0.52916676;stroke-linecap:butt;stroke-linejoin:miter;stroke-miterlimit:4;stroke-dasharray:none;stroke-opacity:0.98989898"
       d="m 126.18318,133.96505 c -0.40409,4.61266 2.53808,7.42824 8.65432,7.27621 8.86271,-0.2203 13.34343,-6.60733 14.43466,-11.08169 1.2633,-5.17993 -0.76382,-12.0702 -6.40267,-11.51206 -1.31463,0.13012 -2.53347,-0.41375 -2.22634,-1.85934 0.34272,-1.6131 2.5414,-1.75175 3.17128,-0.21953 1.30005,3.16247 9.40641,4.09908 10.01637,-3.44904 0.32793,-4.0581 -2.83391,-6.78277 -8.78795,-6.87834 -6.65632,-0.10685 -13.57746,2.34519 -14.80314,10.58515 -0.98554,6.62559 3.0617,10.46955 5.82621,11.27051 2.09647,0.60741 3.53922,0.48675 3.49628,2.10248 -0.0473,1.78117 -2.56967,2.95551 -3.40179,0.92132 -2.30142,-5.62606 -9.48989,-2.71862 -9.97723,2.84433 z"
       id="path21-1"
       inkscape:connector-curvature="0"
       sodipodi:nodetypes="sssssssssssss" />
  </g>
</svg>
